<mxfile host="app.diagrams.net" modified="2023-10-06T10:18:51.335Z" agent="Mozilla/5.0 (Macintosh; Intel Mac OS X 10_15_7) AppleWebKit/605.1.15 (KHTML, like Gecko) Version/16.6 Safari/605.1.15" etag="6ZTLGSrtAYkK9ITQcVyq" version="22.0.3" type="google">
  <diagram name="Page-1" id="NZLwJHWUdEijCmFSZo5U">
    <mxGraphModel grid="1" page="1" gridSize="10" guides="1" tooltips="1" connect="1" arrows="1" fold="1" pageScale="1" pageWidth="850" pageHeight="1100" math="0" shadow="0">
      <root>
        <mxCell id="0" />
        <mxCell id="1" parent="0" />
        <mxCell id="MP1pSOhWw1-A5AuxiCTw-13" style="edgeStyle=orthogonalEdgeStyle;rounded=0;orthogonalLoop=1;jettySize=auto;html=1;exitX=1;exitY=0.5;exitDx=0;exitDy=0;entryX=0;entryY=0.5;entryDx=0;entryDy=0;" edge="1" parent="1" source="MP1pSOhWw1-A5AuxiCTw-2" target="MP1pSOhWw1-A5AuxiCTw-8">
          <mxGeometry relative="1" as="geometry" />
        </mxCell>
        <mxCell id="n1W8WyWPI8wo-H7HfETh-5" style="edgeStyle=orthogonalEdgeStyle;rounded=0;orthogonalLoop=1;jettySize=auto;html=1;" edge="1" parent="1" source="MP1pSOhWw1-A5AuxiCTw-2">
          <mxGeometry relative="1" as="geometry">
            <mxPoint x="270" y="55" as="targetPoint" />
          </mxGeometry>
        </mxCell>
        <mxCell id="MP1pSOhWw1-A5AuxiCTw-2" value="Plan and design your database schema&amp;nbsp;" style="rounded=1;whiteSpace=wrap;html=1;" vertex="1" parent="1">
          <mxGeometry x="330" y="20" width="160" height="70" as="geometry" />
        </mxCell>
        <mxCell id="MP1pSOhWw1-A5AuxiCTw-22" value="" style="edgeStyle=orthogonalEdgeStyle;rounded=0;orthogonalLoop=1;jettySize=auto;html=1;" edge="1" parent="1" source="MP1pSOhWw1-A5AuxiCTw-3" target="MP1pSOhWw1-A5AuxiCTw-18">
          <mxGeometry relative="1" as="geometry" />
        </mxCell>
        <mxCell id="MP1pSOhWw1-A5AuxiCTw-3" value="Create a SQL script" style="rounded=1;whiteSpace=wrap;html=1;" vertex="1" parent="1">
          <mxGeometry x="330" y="100" width="160" height="70" as="geometry" />
        </mxCell>
        <mxCell id="MP1pSOhWw1-A5AuxiCTw-4" value="Plan out your API routes and resources. Create your requirements tables similar to the one above." style="rounded=1;whiteSpace=wrap;html=1;" vertex="1" parent="1">
          <mxGeometry x="330" y="190" width="160" height="90" as="geometry" />
        </mxCell>
        <mxCell id="MP1pSOhWw1-A5AuxiCTw-24" style="edgeStyle=orthogonalEdgeStyle;rounded=0;orthogonalLoop=1;jettySize=auto;html=1;entryX=0.5;entryY=0;entryDx=0;entryDy=0;" edge="1" parent="1" source="MP1pSOhWw1-A5AuxiCTw-5" target="MP1pSOhWw1-A5AuxiCTw-23">
          <mxGeometry relative="1" as="geometry" />
        </mxCell>
        <mxCell id="MP1pSOhWw1-A5AuxiCTw-5" value="&lt;font style=&quot;font-size: 10px;&quot;&gt;Set up a basic&amp;nbsp;&lt;span style=&quot;border-color: var(--border-color); font-family: Arial; text-align: left; text-decoration-line: underline; text-decoration-skip-ink: none; color: rgb(17, 85, 204);&quot; class=&quot;c21&quot;&gt;&lt;a style=&quot;border-color: var(--border-color); text-decoration: inherit;&quot; href=&quot;https://www.google.com/url?q=https://expressjs.com/&amp;amp;sa=D&amp;amp;source=editors&amp;amp;ust=1696588872830771&amp;amp;usg=AOvVaw3Q-1ynsjV2Uif-jQ8RZWzV&quot; class=&quot;c8&quot;&gt;Express&lt;/a&gt;&lt;/span&gt;&lt;span style=&quot;font-family: Arial; text-align: left;&quot;&gt;&amp;nbsp;server with a test route,&amp;nbsp;&lt;/span&gt;&lt;span style=&quot;border-color: var(--border-color); font-family: Arial; text-align: left; text-decoration-line: underline; text-decoration-skip-ink: none; color: rgb(17, 85, 204);&quot; class=&quot;c21&quot;&gt;&lt;a style=&quot;border-color: var(--border-color); text-decoration: inherit;&quot; href=&quot;https://www.google.com/url?q=https://www.npmjs.com/package/morgan&amp;amp;sa=D&amp;amp;source=editors&amp;amp;ust=1696588872830972&amp;amp;usg=AOvVaw0UehI3n7YNhWWzpMSBK3u9&quot; class=&quot;c8&quot;&gt;logging middleware&lt;/a&gt;&lt;/span&gt;&lt;span style=&quot;font-family: Arial; text-align: left;&quot;&gt;&amp;nbsp;and&amp;nbsp;&lt;/span&gt;&lt;span style=&quot;border-color: var(--border-color); font-family: Arial; text-align: left; text-decoration-line: underline; text-decoration-skip-ink: none; color: rgb(17, 85, 204);&quot; class=&quot;c21&quot;&gt;&lt;a style=&quot;border-color: var(--border-color); text-decoration: inherit;&quot; href=&quot;https://www.google.com/url?q=https://www.npmjs.com/package/nodemon&amp;amp;sa=D&amp;amp;source=editors&amp;amp;ust=1696588872831096&amp;amp;usg=AOvVaw2lOopaytWeFyevFYSEqnsv&quot; class=&quot;c8&quot;&gt;nodemon&lt;/a&gt;&lt;/span&gt;&lt;span style=&quot;border-color: var(--border-color); font-family: Arial; text-align: left; vertical-align: baseline;&quot; class=&quot;c2&quot;&gt;.&lt;/span&gt;&lt;/font&gt;" style="rounded=1;whiteSpace=wrap;html=1;" vertex="1" parent="1">
          <mxGeometry x="330" y="290" width="155" height="80" as="geometry" />
        </mxCell>
        <mxCell id="MP1pSOhWw1-A5AuxiCTw-25" style="edgeStyle=orthogonalEdgeStyle;rounded=0;orthogonalLoop=1;jettySize=auto;html=1;entryX=0.5;entryY=1;entryDx=0;entryDy=0;" edge="1" parent="1" source="MP1pSOhWw1-A5AuxiCTw-6" target="MP1pSOhWw1-A5AuxiCTw-23">
          <mxGeometry relative="1" as="geometry" />
        </mxCell>
        <mxCell id="MP1pSOhWw1-A5AuxiCTw-6" value="Implement CRUD operations using the pg package to interact with your database." style="rounded=1;whiteSpace=wrap;html=1;" vertex="1" parent="1">
          <mxGeometry x="330" y="390" width="160" height="80" as="geometry" />
        </mxCell>
        <mxCell id="MP1pSOhWw1-A5AuxiCTw-27" style="edgeStyle=orthogonalEdgeStyle;rounded=0;orthogonalLoop=1;jettySize=auto;html=1;exitX=1;exitY=0.5;exitDx=0;exitDy=0;entryX=0;entryY=0.5;entryDx=0;entryDy=0;" edge="1" parent="1" source="MP1pSOhWw1-A5AuxiCTw-7" target="MP1pSOhWw1-A5AuxiCTw-26">
          <mxGeometry relative="1" as="geometry" />
        </mxCell>
        <mxCell id="MP1pSOhWw1-A5AuxiCTw-7" value="&lt;ol style=&quot;border-color: var(--border-color); margin: 0px; padding: 0px; list-style-type: none; font-family: Roboto, arial, sans, sans-serif; text-align: start;&quot; start=&quot;3&quot; class=&quot;c14 lst-kix_bntq7i7yl89-0&quot;&gt;&lt;li style=&quot;border-color: var(--border-color); font-family: Arial; margin-left: 36pt; padding-top: 12pt; padding-left: 0pt; padding-bottom: 12pt; line-height: 1.15; text-align: left; counter-increment: lst-ctn-kix_bntq7i7yl89-0 1;&quot; class=&quot;c3 li-bullet-0&quot;&gt;&lt;font style=&quot;font-size: 11px;&quot;&gt;Test the API using tools like Postman or Thunder Client.&lt;/font&gt;&lt;/li&gt;&lt;/ol&gt;" style="rounded=1;whiteSpace=wrap;html=1;" vertex="1" parent="1">
          <mxGeometry x="330" y="490" width="150" height="100" as="geometry" />
        </mxCell>
        <mxCell id="MP1pSOhWw1-A5AuxiCTw-14" style="edgeStyle=orthogonalEdgeStyle;rounded=0;orthogonalLoop=1;jettySize=auto;html=1;entryX=0;entryY=0.25;entryDx=0;entryDy=0;" edge="1" parent="1" source="MP1pSOhWw1-A5AuxiCTw-8" target="MP1pSOhWw1-A5AuxiCTw-9">
          <mxGeometry relative="1" as="geometry" />
        </mxCell>
        <mxCell id="MP1pSOhWw1-A5AuxiCTw-15" style="edgeStyle=orthogonalEdgeStyle;rounded=0;orthogonalLoop=1;jettySize=auto;html=1;exitX=1;exitY=0.5;exitDx=0;exitDy=0;entryX=0;entryY=0.75;entryDx=0;entryDy=0;" edge="1" parent="1" source="MP1pSOhWw1-A5AuxiCTw-8" target="MP1pSOhWw1-A5AuxiCTw-10">
          <mxGeometry relative="1" as="geometry" />
        </mxCell>
        <mxCell id="MP1pSOhWw1-A5AuxiCTw-8" value="Using lucidchart, create 2 table and connecting them" style="rounded=1;whiteSpace=wrap;html=1;" vertex="1" parent="1">
          <mxGeometry x="510" y="25" width="120" height="60" as="geometry" />
        </mxCell>
        <mxCell id="MP1pSOhWw1-A5AuxiCTw-16" style="edgeStyle=orthogonalEdgeStyle;rounded=0;orthogonalLoop=1;jettySize=auto;html=1;exitX=1;exitY=0.5;exitDx=0;exitDy=0;entryX=0;entryY=0.5;entryDx=0;entryDy=0;" edge="1" parent="1" source="MP1pSOhWw1-A5AuxiCTw-9" target="MP1pSOhWw1-A5AuxiCTw-12">
          <mxGeometry relative="1" as="geometry" />
        </mxCell>
        <mxCell id="MP1pSOhWw1-A5AuxiCTw-9" value="Table 1: Songs" style="rounded=1;whiteSpace=wrap;html=1;" vertex="1" parent="1">
          <mxGeometry x="670" width="80" height="40" as="geometry" />
        </mxCell>
        <mxCell id="MP1pSOhWw1-A5AuxiCTw-17" style="edgeStyle=orthogonalEdgeStyle;rounded=0;orthogonalLoop=1;jettySize=auto;html=1;exitX=1;exitY=0.5;exitDx=0;exitDy=0;entryX=0;entryY=0.5;entryDx=0;entryDy=0;" edge="1" parent="1" source="MP1pSOhWw1-A5AuxiCTw-10" target="k5xZAKEoHbPxZRdMwEW1-1">
          <mxGeometry relative="1" as="geometry" />
        </mxCell>
        <mxCell id="MP1pSOhWw1-A5AuxiCTw-10" value="Table 2: Artists" style="rounded=1;whiteSpace=wrap;html=1;" vertex="1" parent="1">
          <mxGeometry x="670" y="50" width="80" height="40" as="geometry" />
        </mxCell>
        <mxCell id="MP1pSOhWw1-A5AuxiCTw-12" value="ID, Title, Album Name, Artist Id" style="rounded=0;whiteSpace=wrap;html=1;" vertex="1" parent="1">
          <mxGeometry x="770" width="140" height="40" as="geometry" />
        </mxCell>
        <mxCell id="k5xZAKEoHbPxZRdMwEW1-1" value="ID, ArtistName, music genre" style="rounded=0;whiteSpace=wrap;html=1;" vertex="1" parent="1">
          <mxGeometry x="770" y="45" width="139" height="50" as="geometry" />
        </mxCell>
        <mxCell id="MP1pSOhWw1-A5AuxiCTw-21" style="edgeStyle=orthogonalEdgeStyle;rounded=0;orthogonalLoop=1;jettySize=auto;html=1;exitX=1;exitY=0.5;exitDx=0;exitDy=0;entryX=0;entryY=0.5;entryDx=0;entryDy=0;" edge="1" parent="1" source="MP1pSOhWw1-A5AuxiCTw-18" target="MP1pSOhWw1-A5AuxiCTw-19">
          <mxGeometry relative="1" as="geometry" />
        </mxCell>
        <mxCell id="MP1pSOhWw1-A5AuxiCTw-18" value="Reseting DataBase Script" style="rounded=1;whiteSpace=wrap;html=1;" vertex="1" parent="1">
          <mxGeometry x="510" y="105" width="120" height="60" as="geometry" />
        </mxCell>
        <mxCell id="MP1pSOhWw1-A5AuxiCTw-19" value="Droping table&lt;br&gt;Creating table,&lt;br&gt;Seeding Table" style="rounded=1;whiteSpace=wrap;html=1;" vertex="1" parent="1">
          <mxGeometry x="650" y="105" width="120" height="60" as="geometry" />
        </mxCell>
        <mxCell id="MP1pSOhWw1-A5AuxiCTw-35" style="edgeStyle=orthogonalEdgeStyle;rounded=0;orthogonalLoop=1;jettySize=auto;html=1;exitX=1;exitY=0.5;exitDx=0;exitDy=0;entryX=0;entryY=0.25;entryDx=0;entryDy=0;" edge="1" parent="1" source="MP1pSOhWw1-A5AuxiCTw-23" target="MP1pSOhWw1-A5AuxiCTw-30">
          <mxGeometry relative="1" as="geometry" />
        </mxCell>
        <mxCell id="MP1pSOhWw1-A5AuxiCTw-37" style="edgeStyle=orthogonalEdgeStyle;rounded=0;orthogonalLoop=1;jettySize=auto;html=1;exitX=1;exitY=0.5;exitDx=0;exitDy=0;entryX=0;entryY=0.5;entryDx=0;entryDy=0;" edge="1" parent="1" source="MP1pSOhWw1-A5AuxiCTw-23" target="MP1pSOhWw1-A5AuxiCTw-29">
          <mxGeometry relative="1" as="geometry" />
        </mxCell>
        <mxCell id="MP1pSOhWw1-A5AuxiCTw-23" value="Main.js" style="rounded=1;whiteSpace=wrap;html=1;" vertex="1" parent="1">
          <mxGeometry x="520" y="350" width="120" height="60" as="geometry" />
        </mxCell>
        <mxCell id="MP1pSOhWw1-A5AuxiCTw-26" value="ThunderClient for testing the routes" style="rounded=1;whiteSpace=wrap;html=1;" vertex="1" parent="1">
          <mxGeometry x="520" y="510" width="120" height="60" as="geometry" />
        </mxCell>
        <mxCell id="qhG7z6Sz0XXHwZTHZPaw-1" value="&lt;table class=&quot;c19&quot; style=&quot;font-style: normal; font-variant-caps: normal; font-weight: 400; letter-spacing: normal; text-align: start; text-transform: none; word-spacing: 0px; -webkit-text-stroke-width: 0px; text-decoration: none; margin-left: 21pt; border-spacing: 0px; border-collapse: collapse; margin-right: auto; caret-color: rgb(0, 0, 0); color: rgb(0, 0, 0); font-family: Roboto, arial, sans, sans-serif; background-color: rgb(255, 255, 255);&quot;&gt;&lt;tbody&gt;&lt;tr class=&quot;c15&quot; style=&quot;height: 0pt;&quot;&gt;&lt;td class=&quot;c24&quot; colspan=&quot;1&quot; rowspan=&quot;1&quot; style=&quot;padding: 5pt; border-style: solid; border-color: rgb(0, 0, 0); border-width: 1pt; vertical-align: top; width: 54pt;&quot;&gt;&lt;p class=&quot;c7&quot; style=&quot;margin: 0px; color: rgb(0, 0, 0); font-size: 11pt; font-family: Arial; padding-top: 0pt; padding-bottom: 0pt; line-height: 1; text-align: left;&quot;&gt;&lt;span class=&quot;c17 c8&quot; style=&quot;color: rgb(0, 0, 0); text-decoration: none; vertical-align: baseline; font-size: 11pt; font-family: Arial; font-style: normal; font-weight: 700;&quot;&gt;HTTP method&lt;/span&gt;&lt;/p&gt;&lt;/td&gt;&lt;td class=&quot;c14&quot; colspan=&quot;1&quot; rowspan=&quot;1&quot; style=&quot;padding: 5pt; border-style: solid; border-color: rgb(0, 0, 0); border-width: 1pt; vertical-align: top; width: 75pt;&quot;&gt;&lt;p class=&quot;c7&quot; style=&quot;margin: 0px; color: rgb(0, 0, 0); font-size: 11pt; font-family: Arial; padding-top: 0pt; padding-bottom: 0pt; line-height: 1; text-align: left;&quot;&gt;&lt;span class=&quot;c17 c8&quot; style=&quot;color: rgb(0, 0, 0); text-decoration: none; vertical-align: baseline; font-size: 11pt; font-family: Arial; font-style: normal; font-weight: 700;&quot;&gt;Path&lt;/span&gt;&lt;/p&gt;&lt;/td&gt;&lt;td class=&quot;c4&quot; colspan=&quot;1&quot; rowspan=&quot;1&quot; style=&quot;padding: 5pt; border-style: solid; border-color: rgb(0, 0, 0); border-width: 1pt; vertical-align: top; width: 87pt;&quot;&gt;&lt;p class=&quot;c7&quot; style=&quot;margin: 0px; color: rgb(0, 0, 0); font-size: 11pt; font-family: Arial; padding-top: 0pt; padding-bottom: 0pt; line-height: 1; text-align: left;&quot;&gt;&lt;span class=&quot;c17 c8&quot; style=&quot;color: rgb(0, 0, 0); text-decoration: none; vertical-align: baseline; font-size: 11pt; font-family: Arial; font-style: normal; font-weight: 700;&quot;&gt;Request body (JSON)&lt;/span&gt;&lt;/p&gt;&lt;/td&gt;&lt;td class=&quot;c11&quot; colspan=&quot;1&quot; rowspan=&quot;1&quot; style=&quot;padding: 5pt; border-style: solid; border-color: rgb(0, 0, 0); border-width: 1pt; vertical-align: top; width: 93pt;&quot;&gt;&lt;p class=&quot;c7&quot; style=&quot;margin: 0px; color: rgb(0, 0, 0); font-size: 11pt; font-family: Arial; padding-top: 0pt; padding-bottom: 0pt; line-height: 1; text-align: left;&quot;&gt;&lt;span class=&quot;c17 c8&quot; style=&quot;color: rgb(0, 0, 0); text-decoration: none; vertical-align: baseline; font-size: 11pt; font-family: Arial; font-style: normal; font-weight: 700;&quot;&gt;Response body (JSON)&lt;/span&gt;&lt;/p&gt;&lt;/td&gt;&lt;td class=&quot;c2&quot; colspan=&quot;1&quot; rowspan=&quot;1&quot; style=&quot;padding: 5pt; border-style: solid; border-color: rgb(0, 0, 0); border-width: 1pt; vertical-align: top; width: 44.2pt;&quot;&gt;&lt;p class=&quot;c7&quot; style=&quot;margin: 0px; color: rgb(0, 0, 0); font-size: 11pt; font-family: Arial; padding-top: 0pt; padding-bottom: 0pt; line-height: 1; text-align: left;&quot;&gt;&lt;span class=&quot;c8 c17&quot; style=&quot;color: rgb(0, 0, 0); text-decoration: none; vertical-align: baseline; font-size: 11pt; font-family: Arial; font-style: normal; font-weight: 700;&quot;&gt;Status code&lt;/span&gt;&lt;/p&gt;&lt;/td&gt;&lt;td class=&quot;c16&quot; colspan=&quot;1&quot; rowspan=&quot;1&quot; style=&quot;padding: 5pt; border-style: solid; border-color: rgb(0, 0, 0); border-width: 1pt; vertical-align: top; width: 125.2pt;&quot;&gt;&lt;p class=&quot;c7&quot; style=&quot;margin: 0px; color: rgb(0, 0, 0); font-size: 11pt; font-family: Arial; padding-top: 0pt; padding-bottom: 0pt; line-height: 1; text-align: left;&quot;&gt;&lt;span class=&quot;c17 c8&quot; style=&quot;color: rgb(0, 0, 0); text-decoration: none; vertical-align: baseline; font-size: 11pt; font-family: Arial; font-style: normal; font-weight: 700;&quot;&gt;Description&lt;/span&gt;&lt;/p&gt;&lt;/td&gt;&lt;/tr&gt;&lt;tr class=&quot;c15&quot; style=&quot;height: 0pt;&quot;&gt;&lt;td class=&quot;c24&quot; colspan=&quot;1&quot; rowspan=&quot;1&quot; style=&quot;padding: 5pt; border-style: solid; border-color: rgb(0, 0, 0); border-width: 1pt; vertical-align: top; width: 54pt;&quot;&gt;&lt;p class=&quot;c7&quot; style=&quot;margin: 0px; color: rgb(0, 0, 0); font-size: 11pt; font-family: Arial; padding-top: 0pt; padding-bottom: 0pt; line-height: 1; text-align: left;&quot;&gt;&lt;span class=&quot;c6&quot; style=&quot;color: rgb(0, 0, 0); font-weight: 400; text-decoration: none; vertical-align: baseline; font-size: 11pt; font-family: Arial; font-style: normal;&quot;&gt;GET&lt;/span&gt;&lt;/p&gt;&lt;/td&gt;&lt;td class=&quot;c14&quot; colspan=&quot;1&quot; rowspan=&quot;1&quot; style=&quot;padding: 5pt; border-style: solid; border-color: rgb(0, 0, 0); border-width: 1pt; vertical-align: top; width: 75pt;&quot;&gt;&lt;p class=&quot;c7&quot; style=&quot;margin: 0px; color: rgb(0, 0, 0); font-size: 11pt; font-family: Arial; padding-top: 0pt; padding-bottom: 0pt; line-height: 1; text-align: left;&quot;&gt;&lt;span class=&quot;c6&quot; style=&quot;color: rgb(0, 0, 0); font-weight: 400; text-decoration: none; vertical-align: baseline; font-size: 11pt; font-family: Arial; font-style: normal;&quot;&gt;/songs&lt;/span&gt;&lt;/p&gt;&lt;/td&gt;&lt;td class=&quot;c4&quot; colspan=&quot;1&quot; rowspan=&quot;1&quot; style=&quot;padding: 5pt; border-style: solid; border-color: rgb(0, 0, 0); border-width: 1pt; vertical-align: top; width: 87pt;&quot;&gt;&lt;p class=&quot;c7&quot; style=&quot;margin: 0px; color: rgb(0, 0, 0); font-size: 11pt; font-family: Arial; padding-top: 0pt; padding-bottom: 0pt; line-height: 1; text-align: left;&quot;&gt;&lt;span class=&quot;c6&quot; style=&quot;color: rgb(0, 0, 0); font-weight: 400; text-decoration: none; vertical-align: baseline; font-size: 11pt; font-family: Arial; font-style: normal;&quot;&gt;N/A&lt;/span&gt;&lt;/p&gt;&lt;/td&gt;&lt;td class=&quot;c11&quot; colspan=&quot;1&quot; rowspan=&quot;1&quot; style=&quot;padding: 5pt; border-style: solid; border-color: rgb(0, 0, 0); border-width: 1pt; vertical-align: top; width: 93pt;&quot;&gt;&lt;p class=&quot;c7&quot; style=&quot;margin: 0px; color: rgb(0, 0, 0); font-size: 11pt; font-family: Arial; padding-top: 0pt; padding-bottom: 0pt; line-height: 1; text-align: left;&quot;&gt;&lt;span class=&quot;c6&quot; style=&quot;color: rgb(0, 0, 0); font-weight: 400; text-decoration: none; vertical-align: baseline; font-size: 11pt; font-family: Arial; font-style: normal;&quot;&gt;List of songs&lt;/span&gt;&lt;/p&gt;&lt;/td&gt;&lt;td class=&quot;c2&quot; colspan=&quot;1&quot; rowspan=&quot;1&quot; style=&quot;padding: 5pt; border-style: solid; border-color: rgb(0, 0, 0); border-width: 1pt; vertical-align: top; width: 44.2pt;&quot;&gt;&lt;p class=&quot;c7&quot; style=&quot;margin: 0px; color: rgb(0, 0, 0); font-size: 11pt; font-family: Arial; padding-top: 0pt; padding-bottom: 0pt; line-height: 1; text-align: left;&quot;&gt;&lt;span class=&quot;c6&quot; style=&quot;color: rgb(0, 0, 0); font-weight: 400; text-decoration: none; vertical-align: baseline; font-size: 11pt; font-family: Arial; font-style: normal;&quot;&gt;200&lt;/span&gt;&lt;/p&gt;&lt;/td&gt;&lt;td class=&quot;c16&quot; colspan=&quot;1&quot; rowspan=&quot;1&quot; style=&quot;padding: 5pt; border-style: solid; border-color: rgb(0, 0, 0); border-width: 1pt; vertical-align: top; width: 125.2pt;&quot;&gt;&lt;p class=&quot;c7&quot; style=&quot;margin: 0px; color: rgb(0, 0, 0); font-size: 11pt; font-family: Arial; padding-top: 0pt; padding-bottom: 0pt; line-height: 1; text-align: left;&quot;&gt;&lt;span class=&quot;c6&quot; style=&quot;color: rgb(0, 0, 0); font-weight: 400; text-decoration: none; vertical-align: baseline; font-size: 11pt; font-family: Arial; font-style: normal;&quot;&gt;Retrieve all songs&lt;/span&gt;&lt;/p&gt;&lt;/td&gt;&lt;/tr&gt;&lt;tr class=&quot;c15&quot; style=&quot;height: 0pt;&quot;&gt;&lt;td class=&quot;c24&quot; colspan=&quot;1&quot; rowspan=&quot;1&quot; style=&quot;padding: 5pt; border-style: solid; border-color: rgb(0, 0, 0); border-width: 1pt; vertical-align: top; width: 54pt;&quot;&gt;&lt;p class=&quot;c7&quot; style=&quot;margin: 0px; color: rgb(0, 0, 0); font-size: 11pt; font-family: Arial; padding-top: 0pt; padding-bottom: 0pt; line-height: 1; text-align: left;&quot;&gt;&lt;span class=&quot;c6&quot; style=&quot;color: rgb(0, 0, 0); font-weight: 400; text-decoration: none; vertical-align: baseline; font-size: 11pt; font-family: Arial; font-style: normal;&quot;&gt;GET&lt;/span&gt;&lt;/p&gt;&lt;/td&gt;&lt;td class=&quot;c14&quot; colspan=&quot;1&quot; rowspan=&quot;1&quot; style=&quot;padding: 5pt; border-style: solid; border-color: rgb(0, 0, 0); border-width: 1pt; vertical-align: top; width: 75pt;&quot;&gt;&lt;p class=&quot;c7&quot; style=&quot;margin: 0px; color: rgb(0, 0, 0); font-size: 11pt; font-family: Arial; padding-top: 0pt; padding-bottom: 0pt; line-height: 1; text-align: left;&quot;&gt;&lt;span class=&quot;c6&quot; style=&quot;color: rgb(0, 0, 0); font-weight: 400; text-decoration: none; vertical-align: baseline; font-size: 11pt; font-family: Arial; font-style: normal;&quot;&gt;/songs/:id&lt;/span&gt;&lt;/p&gt;&lt;/td&gt;&lt;td class=&quot;c4&quot; colspan=&quot;1&quot; rowspan=&quot;1&quot; style=&quot;padding: 5pt; border-style: solid; border-color: rgb(0, 0, 0); border-width: 1pt; vertical-align: top; width: 87pt;&quot;&gt;&lt;p class=&quot;c7&quot; style=&quot;margin: 0px; color: rgb(0, 0, 0); font-size: 11pt; font-family: Arial; padding-top: 0pt; padding-bottom: 0pt; line-height: 1; text-align: left;&quot;&gt;&lt;span class=&quot;c6&quot; style=&quot;color: rgb(0, 0, 0); font-weight: 400; text-decoration: none; vertical-align: baseline; font-size: 11pt; font-family: Arial; font-style: normal;&quot;&gt;N/A&lt;/span&gt;&lt;/p&gt;&lt;/td&gt;&lt;td class=&quot;c11&quot; colspan=&quot;1&quot; rowspan=&quot;1&quot; style=&quot;padding: 5pt; border-style: solid; border-color: rgb(0, 0, 0); border-width: 1pt; vertical-align: top; width: 93pt;&quot;&gt;&lt;p class=&quot;c7&quot; style=&quot;margin: 0px; color: rgb(0, 0, 0); font-size: 11pt; font-family: Arial; padding-top: 0pt; padding-bottom: 0pt; line-height: 1; text-align: left;&quot;&gt;&lt;span class=&quot;c6&quot; style=&quot;color: rgb(0, 0, 0); font-weight: 400; text-decoration: none; vertical-align: baseline; font-size: 11pt; font-family: Arial; font-style: normal;&quot;&gt;A particular song&lt;/span&gt;&lt;/p&gt;&lt;/td&gt;&lt;td class=&quot;c2&quot; colspan=&quot;1&quot; rowspan=&quot;1&quot; style=&quot;padding: 5pt; border-style: solid; border-color: rgb(0, 0, 0); border-width: 1pt; vertical-align: top; width: 44.2pt;&quot;&gt;&lt;p class=&quot;c7&quot; style=&quot;margin: 0px; color: rgb(0, 0, 0); font-size: 11pt; font-family: Arial; padding-top: 0pt; padding-bottom: 0pt; line-height: 1; text-align: left;&quot;&gt;&lt;span class=&quot;c6&quot; style=&quot;color: rgb(0, 0, 0); font-weight: 400; text-decoration: none; vertical-align: baseline; font-size: 11pt; font-family: Arial; font-style: normal;&quot;&gt;200&lt;/span&gt;&lt;/p&gt;&lt;/td&gt;&lt;td class=&quot;c16&quot; colspan=&quot;1&quot; rowspan=&quot;1&quot; style=&quot;padding: 5pt; border-style: solid; border-color: rgb(0, 0, 0); border-width: 1pt; vertical-align: top; width: 125.2pt;&quot;&gt;&lt;p class=&quot;c7&quot; style=&quot;margin: 0px; color: rgb(0, 0, 0); font-size: 11pt; font-family: Arial; padding-top: 0pt; padding-bottom: 0pt; line-height: 1; text-align: left;&quot;&gt;&lt;span class=&quot;c6&quot; style=&quot;color: rgb(0, 0, 0); font-weight: 400; text-decoration: none; vertical-align: baseline; font-size: 11pt; font-family: Arial; font-style: normal;&quot;&gt;Retrieve a specific songs by its ID&lt;/span&gt;&lt;/p&gt;&lt;/td&gt;&lt;/tr&gt;&lt;tr class=&quot;c15&quot; style=&quot;height: 0pt;&quot;&gt;&lt;td class=&quot;c24&quot; colspan=&quot;1&quot; rowspan=&quot;1&quot; style=&quot;padding: 5pt; border-style: solid; border-color: rgb(0, 0, 0); border-width: 1pt; vertical-align: top; width: 54pt;&quot;&gt;&lt;p class=&quot;c7&quot; style=&quot;margin: 0px; color: rgb(0, 0, 0); font-size: 11pt; font-family: Arial; padding-top: 0pt; padding-bottom: 0pt; line-height: 1; text-align: left;&quot;&gt;&lt;span class=&quot;c6&quot; style=&quot;color: rgb(0, 0, 0); font-weight: 400; text-decoration: none; vertical-align: baseline; font-size: 11pt; font-family: Arial; font-style: normal;&quot;&gt;POST&lt;/span&gt;&lt;/p&gt;&lt;/td&gt;&lt;td class=&quot;c14&quot; colspan=&quot;1&quot; rowspan=&quot;1&quot; style=&quot;padding: 5pt; border-style: solid; border-color: rgb(0, 0, 0); border-width: 1pt; vertical-align: top; width: 75pt;&quot;&gt;&lt;p class=&quot;c7&quot; style=&quot;margin: 0px; color: rgb(0, 0, 0); font-size: 11pt; font-family: Arial; padding-top: 0pt; padding-bottom: 0pt; line-height: 1; text-align: left;&quot;&gt;&lt;span class=&quot;c6&quot; style=&quot;color: rgb(0, 0, 0); font-weight: 400; text-decoration: none; vertical-align: baseline; font-size: 11pt; font-family: Arial; font-style: normal;&quot;&gt;/song&lt;/span&gt;&lt;/p&gt;&lt;/td&gt;&lt;td class=&quot;c4&quot; colspan=&quot;1&quot; rowspan=&quot;1&quot; style=&quot;padding: 5pt; border-style: solid; border-color: rgb(0, 0, 0); border-width: 1pt; vertical-align: top; width: 87pt;&quot;&gt;&lt;p class=&quot;c7&quot; style=&quot;margin: 0px; color: rgb(0, 0, 0); font-size: 11pt; font-family: Arial; padding-top: 0pt; padding-bottom: 0pt; line-height: 1; text-align: left;&quot;&gt;&lt;span class=&quot;c6&quot; style=&quot;color: rgb(0, 0, 0); font-weight: 400; text-decoration: none; vertical-align: baseline; font-size: 11pt; font-family: Arial; font-style: normal;&quot;&gt;New song object&lt;/span&gt;&lt;/p&gt;&lt;/td&gt;&lt;td class=&quot;c11&quot; colspan=&quot;1&quot; rowspan=&quot;1&quot; style=&quot;padding: 5pt; border-style: solid; border-color: rgb(0, 0, 0); border-width: 1pt; vertical-align: top; width: 93pt;&quot;&gt;&lt;p class=&quot;c7&quot; style=&quot;margin: 0px; color: rgb(0, 0, 0); font-size: 11pt; font-family: Arial; padding-top: 0pt; padding-bottom: 0pt; line-height: 1; text-align: left;&quot;&gt;&lt;span class=&quot;c6&quot; style=&quot;color: rgb(0, 0, 0); font-weight: 400; text-decoration: none; vertical-align: baseline; font-size: 11pt; font-family: Arial; font-style: normal;&quot;&gt;A newly created song&lt;/span&gt;&lt;/p&gt;&lt;p class=&quot;c7&quot; style=&quot;margin: 0px; color: rgb(0, 0, 0); font-size: 11pt; font-family: Arial; padding-top: 0pt; padding-bottom: 0pt; line-height: 1; text-align: left;&quot;&gt;&lt;span class=&quot;c6&quot; style=&quot;color: rgb(0, 0, 0); font-weight: 400; text-decoration: none; vertical-align: baseline; font-size: 11pt; font-family: Arial; font-style: normal;&quot;&gt;object&lt;/span&gt;&lt;/p&gt;&lt;/td&gt;&lt;td class=&quot;c2&quot; colspan=&quot;1&quot; rowspan=&quot;1&quot; style=&quot;padding: 5pt; border-style: solid; border-color: rgb(0, 0, 0); border-width: 1pt; vertical-align: top; width: 44.2pt;&quot;&gt;&lt;p class=&quot;c7&quot; style=&quot;margin: 0px; color: rgb(0, 0, 0); font-size: 11pt; font-family: Arial; padding-top: 0pt; padding-bottom: 0pt; line-height: 1; text-align: left;&quot;&gt;&lt;span class=&quot;c6&quot; style=&quot;color: rgb(0, 0, 0); font-weight: 400; text-decoration: none; vertical-align: baseline; font-size: 11pt; font-family: Arial; font-style: normal;&quot;&gt;201&lt;/span&gt;&lt;/p&gt;&lt;/td&gt;&lt;td class=&quot;c16&quot; colspan=&quot;1&quot; rowspan=&quot;1&quot; style=&quot;padding: 5pt; border-style: solid; border-color: rgb(0, 0, 0); border-width: 1pt; vertical-align: top; width: 125.2pt;&quot;&gt;&lt;p class=&quot;c7&quot; style=&quot;margin: 0px; color: rgb(0, 0, 0); font-size: 11pt; font-family: Arial; padding-top: 0pt; padding-bottom: 0pt; line-height: 1; text-align: left;&quot;&gt;&lt;span class=&quot;c6&quot; style=&quot;color: rgb(0, 0, 0); font-weight: 400; text-decoration: none; vertical-align: baseline; font-size: 11pt; font-family: Arial; font-style: normal;&quot;&gt;Create a new resource&lt;/span&gt;&lt;/p&gt;&lt;/td&gt;&lt;/tr&gt;&lt;tr class=&quot;c15&quot; style=&quot;height: 0pt;&quot;&gt;&lt;td class=&quot;c24&quot; colspan=&quot;1&quot; rowspan=&quot;1&quot; style=&quot;padding: 5pt; border-style: solid; border-color: rgb(0, 0, 0); border-width: 1pt; vertical-align: top; width: 54pt;&quot;&gt;&lt;p class=&quot;c7&quot; style=&quot;margin: 0px; color: rgb(0, 0, 0); font-size: 11pt; font-family: Arial; padding-top: 0pt; padding-bottom: 0pt; line-height: 1; text-align: left;&quot;&gt;&lt;span class=&quot;c6&quot; style=&quot;color: rgb(0, 0, 0); font-weight: 400; text-decoration: none; vertical-align: baseline; font-size: 11pt; font-family: Arial; font-style: normal;&quot;&gt;PATCH&lt;/span&gt;&lt;/p&gt;&lt;/td&gt;&lt;td class=&quot;c14&quot; colspan=&quot;1&quot; rowspan=&quot;1&quot; style=&quot;padding: 5pt; border-style: solid; border-color: rgb(0, 0, 0); border-width: 1pt; vertical-align: top; width: 75pt;&quot;&gt;&lt;p class=&quot;c7&quot; style=&quot;margin: 0px; color: rgb(0, 0, 0); font-size: 11pt; font-family: Arial; padding-top: 0pt; padding-bottom: 0pt; line-height: 1; text-align: left;&quot;&gt;&lt;span class=&quot;c6&quot; style=&quot;color: rgb(0, 0, 0); font-weight: 400; text-decoration: none; vertical-align: baseline; font-size: 11pt; font-family: Arial; font-style: normal;&quot;&gt;/songs/:id&lt;/span&gt;&lt;/p&gt;&lt;/td&gt;&lt;td class=&quot;c4&quot; colspan=&quot;1&quot; rowspan=&quot;1&quot; style=&quot;padding: 5pt; border-style: solid; border-color: rgb(0, 0, 0); border-width: 1pt; vertical-align: top; width: 87pt;&quot;&gt;&lt;p class=&quot;c7&quot; style=&quot;margin: 0px; color: rgb(0, 0, 0); font-size: 11pt; font-family: Arial; padding-top: 0pt; padding-bottom: 0pt; line-height: 1; text-align: left;&quot;&gt;&lt;span class=&quot;c6&quot; style=&quot;color: rgb(0, 0, 0); font-weight: 400; text-decoration: none; vertical-align: baseline; font-size: 11pt; font-family: Arial; font-style: normal;&quot;&gt;Edited song object&lt;/span&gt;&lt;/p&gt;&lt;/td&gt;&lt;td class=&quot;c11&quot; colspan=&quot;1&quot; rowspan=&quot;1&quot; style=&quot;padding: 5pt; border-style: solid; border-color: rgb(0, 0, 0); border-width: 1pt; vertical-align: top; width: 93pt;&quot;&gt;&lt;p class=&quot;c7&quot; style=&quot;margin: 0px; color: rgb(0, 0, 0); font-size: 11pt; font-family: Arial; padding-top: 0pt; padding-bottom: 0pt; line-height: 1; text-align: left;&quot;&gt;&lt;span class=&quot;c6&quot; style=&quot;color: rgb(0, 0, 0); font-weight: 400; text-decoration: none; vertical-align: baseline; font-size: 11pt; font-family: Arial; font-style: normal;&quot;&gt;An edited song object&lt;/span&gt;&lt;/p&gt;&lt;/td&gt;&lt;td class=&quot;c2&quot; colspan=&quot;1&quot; rowspan=&quot;1&quot; style=&quot;padding: 5pt; border-style: solid; border-color: rgb(0, 0, 0); border-width: 1pt; vertical-align: top; width: 44.2pt;&quot;&gt;&lt;p class=&quot;c7&quot; style=&quot;margin: 0px; color: rgb(0, 0, 0); font-size: 11pt; font-family: Arial; padding-top: 0pt; padding-bottom: 0pt; line-height: 1; text-align: left;&quot;&gt;&lt;span class=&quot;c6&quot; style=&quot;color: rgb(0, 0, 0); font-weight: 400; text-decoration: none; vertical-align: baseline; font-size: 11pt; font-family: Arial; font-style: normal;&quot;&gt;200&lt;/span&gt;&lt;/p&gt;&lt;/td&gt;&lt;td class=&quot;c16&quot; colspan=&quot;1&quot; rowspan=&quot;1&quot; style=&quot;padding: 5pt; border-style: solid; border-color: rgb(0, 0, 0); border-width: 1pt; vertical-align: top; width: 125.2pt;&quot;&gt;&lt;p class=&quot;c7&quot; style=&quot;margin: 0px; color: rgb(0, 0, 0); font-size: 11pt; font-family: Arial; padding-top: 0pt; padding-bottom: 0pt; line-height: 1; text-align: left;&quot;&gt;&lt;span class=&quot;c6&quot; style=&quot;color: rgb(0, 0, 0); font-weight: 400; text-decoration: none; vertical-align: baseline; font-size: 11pt; font-family: Arial; font-style: normal;&quot;&gt;Update the details of a specific song&lt;/span&gt;&lt;/p&gt;&lt;/td&gt;&lt;/tr&gt;&lt;tr class=&quot;c15&quot; style=&quot;height: 0pt;&quot;&gt;&lt;td class=&quot;c24&quot; colspan=&quot;1&quot; rowspan=&quot;1&quot; style=&quot;padding: 5pt; border-style: solid; border-color: rgb(0, 0, 0); border-width: 1pt; vertical-align: top; width: 54pt;&quot;&gt;&lt;p class=&quot;c7&quot; style=&quot;margin: 0px; color: rgb(0, 0, 0); font-size: 11pt; font-family: Arial; padding-top: 0pt; padding-bottom: 0pt; line-height: 1; text-align: left;&quot;&gt;&lt;span class=&quot;c6&quot; style=&quot;color: rgb(0, 0, 0); font-weight: 400; text-decoration: none; vertical-align: baseline; font-size: 11pt; font-family: Arial; font-style: normal;&quot;&gt;DELETE&lt;/span&gt;&lt;/p&gt;&lt;/td&gt;&lt;td class=&quot;c14&quot; colspan=&quot;1&quot; rowspan=&quot;1&quot; style=&quot;padding: 5pt; border-style: solid; border-color: rgb(0, 0, 0); border-width: 1pt; vertical-align: top; width: 75pt;&quot;&gt;&lt;p class=&quot;c7&quot; style=&quot;margin: 0px; color: rgb(0, 0, 0); font-size: 11pt; font-family: Arial; padding-top: 0pt; padding-bottom: 0pt; line-height: 1; text-align: left;&quot;&gt;&lt;span class=&quot;c6&quot; style=&quot;color: rgb(0, 0, 0); font-weight: 400; text-decoration: none; vertical-align: baseline; font-size: 11pt; font-family: Arial; font-style: normal;&quot;&gt;/songs/:id&lt;/span&gt;&lt;/p&gt;&lt;/td&gt;&lt;td class=&quot;c4&quot; colspan=&quot;1&quot; rowspan=&quot;1&quot; style=&quot;padding: 5pt; border-style: solid; border-color: rgb(0, 0, 0); border-width: 1pt; vertical-align: top; width: 87pt;&quot;&gt;&lt;p class=&quot;c7&quot; style=&quot;margin: 0px; color: rgb(0, 0, 0); font-size: 11pt; font-family: Arial; padding-top: 0pt; padding-bottom: 0pt; line-height: 1; text-align: left;&quot;&gt;&lt;span class=&quot;c6&quot; style=&quot;color: rgb(0, 0, 0); font-weight: 400; text-decoration: none; vertical-align: baseline; font-size: 11pt; font-family: Arial; font-style: normal;&quot;&gt;N/A&lt;/span&gt;&lt;/p&gt;&lt;/td&gt;&lt;td class=&quot;c11&quot; colspan=&quot;1&quot; rowspan=&quot;1&quot; style=&quot;padding: 5pt; border-style: solid; border-color: rgb(0, 0, 0); border-width: 1pt; vertical-align: top; width: 93pt;&quot;&gt;&lt;p class=&quot;c7&quot; style=&quot;margin: 0px; color: rgb(0, 0, 0); font-size: 11pt; font-family: Arial; padding-top: 0pt; padding-bottom: 0pt; line-height: 1; text-align: left;&quot;&gt;&lt;span class=&quot;c6&quot; style=&quot;color: rgb(0, 0, 0); font-weight: 400; text-decoration: none; vertical-align: baseline; font-size: 11pt; font-family: Arial; font-style: normal;&quot;&gt;A deleted song object&lt;/span&gt;&lt;/p&gt;&lt;/td&gt;&lt;td class=&quot;c2&quot; colspan=&quot;1&quot; rowspan=&quot;1&quot; style=&quot;padding: 5pt; border-style: solid; border-color: rgb(0, 0, 0); border-width: 1pt; vertical-align: top; width: 44.2pt;&quot;&gt;&lt;p class=&quot;c7&quot; style=&quot;margin: 0px; color: rgb(0, 0, 0); font-size: 11pt; font-family: Arial; padding-top: 0pt; padding-bottom: 0pt; line-height: 1; text-align: left;&quot;&gt;&lt;span class=&quot;c6&quot; style=&quot;color: rgb(0, 0, 0); font-weight: 400; text-decoration: none; vertical-align: baseline; font-size: 11pt; font-family: Arial; font-style: normal;&quot;&gt;200&lt;/span&gt;&lt;/p&gt;&lt;/td&gt;&lt;td class=&quot;c16&quot; colspan=&quot;1&quot; rowspan=&quot;1&quot; style=&quot;padding: 5pt; border-style: solid; border-color: rgb(0, 0, 0); border-width: 1pt; vertical-align: top; width: 125.2pt;&quot;&gt;&lt;p class=&quot;c7&quot; style=&quot;margin: 0px; color: rgb(0, 0, 0); font-size: 11pt; font-family: Arial; padding-top: 0pt; padding-bottom: 0pt; line-height: 1; text-align: left;&quot;&gt;&lt;span class=&quot;c6&quot; style=&quot;color: rgb(0, 0, 0); font-weight: 400; text-decoration: none; vertical-align: baseline; font-size: 11pt; font-family: Arial; font-style: normal;&quot;&gt;Remove a specific song by its ID&lt;/span&gt;&lt;/p&gt;&lt;/td&gt;&lt;/tr&gt;&lt;/tbody&gt;&lt;/table&gt;" style="text;whiteSpace=wrap;html=1;" vertex="1" parent="1">
          <mxGeometry x="980" y="70" width="560" height="440" as="geometry" />
        </mxCell>
        <mxCell id="MP1pSOhWw1-A5AuxiCTw-28" style="edgeStyle=orthogonalEdgeStyle;rounded=0;orthogonalLoop=1;jettySize=auto;html=1;entryX=0;entryY=0.375;entryDx=0;entryDy=0;entryPerimeter=0;" edge="1" parent="1" source="MP1pSOhWw1-A5AuxiCTw-4" target="qhG7z6Sz0XXHwZTHZPaw-1">
          <mxGeometry relative="1" as="geometry" />
        </mxCell>
        <mxCell id="MP1pSOhWw1-A5AuxiCTw-38" style="edgeStyle=orthogonalEdgeStyle;rounded=0;orthogonalLoop=1;jettySize=auto;html=1;exitX=1;exitY=0.5;exitDx=0;exitDy=0;entryX=0;entryY=0.25;entryDx=0;entryDy=0;" edge="1" parent="1" source="MP1pSOhWw1-A5AuxiCTw-29" target="MP1pSOhWw1-A5AuxiCTw-31">
          <mxGeometry relative="1" as="geometry" />
        </mxCell>
        <mxCell id="MP1pSOhWw1-A5AuxiCTw-29" value="Songs&amp;nbsp;Route Handlers" style="rounded=1;whiteSpace=wrap;html=1;" vertex="1" parent="1">
          <mxGeometry x="680" y="275" width="120" height="60" as="geometry" />
        </mxCell>
        <mxCell id="MP1pSOhWw1-A5AuxiCTw-39" style="edgeStyle=orthogonalEdgeStyle;rounded=0;orthogonalLoop=1;jettySize=auto;html=1;exitX=1;exitY=0.5;exitDx=0;exitDy=0;entryX=0;entryY=0.25;entryDx=0;entryDy=0;" edge="1" parent="1" source="MP1pSOhWw1-A5AuxiCTw-30" target="MP1pSOhWw1-A5AuxiCTw-34">
          <mxGeometry relative="1" as="geometry" />
        </mxCell>
        <mxCell id="MP1pSOhWw1-A5AuxiCTw-30" value="Artists&amp;nbsp;Route Handlers" style="rounded=1;whiteSpace=wrap;html=1;" vertex="1" parent="1">
          <mxGeometry x="680" y="420" width="120" height="60" as="geometry" />
        </mxCell>
        <mxCell id="MP1pSOhWw1-A5AuxiCTw-31" value="GET, POST, PATCH,DELETE" style="rounded=1;whiteSpace=wrap;html=1;" vertex="1" parent="1">
          <mxGeometry x="850" y="298" width="120" height="30" as="geometry" />
        </mxCell>
        <mxCell id="MP1pSOhWw1-A5AuxiCTw-34" value="GET, POST, PATCH,DELETE" style="rounded=1;whiteSpace=wrap;html=1;" vertex="1" parent="1">
          <mxGeometry x="850" y="443" width="120" height="30" as="geometry" />
        </mxCell>
        <mxCell id="n1W8WyWPI8wo-H7HfETh-4" value="Connect ElephantSQL&lt;br&gt;" style="rounded=1;whiteSpace=wrap;html=1;" vertex="1" parent="1">
          <mxGeometry x="150" y="30" width="120" height="60" as="geometry" />
        </mxCell>
        <mxCell id="n1W8WyWPI8wo-H7HfETh-6" value="NPM Package" style="rhombus;whiteSpace=wrap;html=1;" vertex="1" parent="1">
          <mxGeometry x="10" y="120" width="150" height="120" as="geometry" />
        </mxCell>
        <mxCell id="n1W8WyWPI8wo-H7HfETh-9" value="ExpressJS&lt;br&gt;" style="rounded=1;whiteSpace=wrap;html=1;" vertex="1" parent="1">
          <mxGeometry x="40" y="260" width="90" height="50" as="geometry" />
        </mxCell>
        <mxCell id="n1W8WyWPI8wo-H7HfETh-10" value="Nodemon&lt;br&gt;" style="rounded=1;whiteSpace=wrap;html=1;" vertex="1" parent="1">
          <mxGeometry x="40" y="328" width="90" height="50" as="geometry" />
        </mxCell>
        <mxCell id="n1W8WyWPI8wo-H7HfETh-11" value="PostgreSQL" style="rounded=1;whiteSpace=wrap;html=1;" vertex="1" parent="1">
          <mxGeometry x="40" y="460" width="90" height="50" as="geometry" />
        </mxCell>
        <mxCell id="qhG7z6Sz0XXHwZTHZPaw-7" style="edgeStyle=orthogonalEdgeStyle;rounded=0;orthogonalLoop=1;jettySize=auto;html=1;exitX=0.5;exitY=1;exitDx=0;exitDy=0;entryX=0.5;entryY=0;entryDx=0;entryDy=0;" edge="1" parent="1" source="qhG7z6Sz0XXHwZTHZPaw-4" target="qhG7z6Sz0XXHwZTHZPaw-5">
          <mxGeometry relative="1" as="geometry" />
        </mxCell>
        <mxCell id="qhG7z6Sz0XXHwZTHZPaw-4" value=".env" style="rounded=1;whiteSpace=wrap;html=1;" vertex="1" parent="1">
          <mxGeometry x="40" y="460" width="90" height="50" as="geometry" />
        </mxCell>
        <mxCell id="n1W8WyWPI8wo-H7HfETh-13" style="edgeStyle=orthogonalEdgeStyle;rounded=0;orthogonalLoop=1;jettySize=auto;html=1;exitX=0.5;exitY=1;exitDx=0;exitDy=0;entryX=0.5;entryY=0;entryDx=0;entryDy=0;" edge="1" parent="1" source="n1W8WyWPI8wo-H7HfETh-9" target="n1W8WyWPI8wo-H7HfETh-10">
          <mxGeometry relative="1" as="geometry" />
        </mxCell>
        <mxCell id="qhG7z6Sz0XXHwZTHZPaw-6" style="edgeStyle=orthogonalEdgeStyle;rounded=0;orthogonalLoop=1;jettySize=auto;html=1;exitX=0.5;exitY=1;exitDx=0;exitDy=0;entryX=0.5;entryY=0;entryDx=0;entryDy=0;" edge="1" parent="1" source="qhG7z6Sz0XXHwZTHZPaw-2" target="qhG7z6Sz0XXHwZTHZPaw-4">
          <mxGeometry relative="1" as="geometry" />
        </mxCell>
        <mxCell id="qhG7z6Sz0XXHwZTHZPaw-2" value="Morgan" style="rounded=1;whiteSpace=wrap;html=1;" vertex="1" parent="1">
          <mxGeometry x="40" y="393" width="90" height="47" as="geometry" />
        </mxCell>
        <mxCell id="n1W8WyWPI8wo-H7HfETh-14" style="edgeStyle=orthogonalEdgeStyle;rounded=0;orthogonalLoop=1;jettySize=auto;html=1;exitX=0.5;exitY=1;exitDx=0;exitDy=0;" edge="1" parent="1" source="n1W8WyWPI8wo-H7HfETh-10">
          <mxGeometry relative="1" as="geometry">
            <mxPoint x="85" y="390" as="targetPoint" />
          </mxGeometry>
        </mxCell>
        <mxCell id="n1W8WyWPI8wo-H7HfETh-12" style="edgeStyle=orthogonalEdgeStyle;rounded=0;orthogonalLoop=1;jettySize=auto;html=1;exitX=0.5;exitY=1;exitDx=0;exitDy=0;entryX=0.5;entryY=0;entryDx=0;entryDy=0;" edge="1" parent="1" source="n1W8WyWPI8wo-H7HfETh-6" target="n1W8WyWPI8wo-H7HfETh-9">
          <mxGeometry relative="1" as="geometry" />
        </mxCell>
        <mxCell id="qhG7z6Sz0XXHwZTHZPaw-5" value="Postgres" style="rounded=1;whiteSpace=wrap;html=1;" vertex="1" parent="1">
          <mxGeometry x="40" y="530" width="90" height="50" as="geometry" />
        </mxCell>
      </root>
    </mxGraphModel>
  </diagram>
</mxfile>
